<svg width="12" height="25" viewBox="0 0 12 25" fill="none" xmlns="http://www.w3.org/2000/svg">
<mask id="path-1-inside-1_3_39" fill="white">
<path fill-rule="evenodd" clip-rule="evenodd" d="M5.91978 0C4.05155 0 2.53705 1.5145 2.53705 3.38273V13.9431C1.00448 15.0365 0 16.8656 0 18.9375C0 22.2857 2.62333 25 5.85938 25C9.09542 25 11.7188 22.2857 11.7188 18.9375C11.7188 16.9206 10.7668 15.1337 9.30251 14.0316V3.38273C9.30251 1.5145 7.78801 0 5.91978 0Z"/>
</mask>
<path d="M2.53705 13.9431L3.40826 15.1641L4.03705 14.7155V13.9431H2.53705ZM9.30251 14.0316H7.80251V14.78L8.40049 15.2301L9.30251 14.0316ZM4.03705 3.38273C4.03705 2.34293 4.87998 1.5 5.91978 1.5V-1.5C3.22312 -1.5 1.03705 0.686072 1.03705 3.38273H4.03705ZM4.03705 13.9431V3.38273H1.03705V13.9431H4.03705ZM1.5 18.9375C1.5 17.3575 2.26437 15.9803 3.40826 15.1641L1.66584 12.722C-0.255413 14.0928 -1.5 16.3737 -1.5 18.9375H1.5ZM5.85938 23.5C3.49953 23.5 1.5 21.5059 1.5 18.9375H-1.5C-1.5 23.0655 1.74713 26.5 5.85938 26.5V23.5ZM10.2188 18.9375C10.2188 21.5059 8.21922 23.5 5.85938 23.5V26.5C9.97162 26.5 13.2188 23.0655 13.2188 18.9375H10.2188ZM8.40049 15.2301C9.49447 16.0534 10.2188 17.3995 10.2188 18.9375H13.2188C13.2188 16.4417 12.0392 14.214 10.2045 12.8331L8.40049 15.2301ZM7.80251 3.38273V14.0316H10.8025V3.38273H7.80251ZM5.91978 1.5C6.95958 1.5 7.80251 2.34293 7.80251 3.38273H10.8025C10.8025 0.686073 8.61644 -1.5 5.91978 -1.5V1.5Z" fill="white" mask="url(#path-1-inside-1_3_39)"/>
<path fill-rule="evenodd" clip-rule="evenodd" d="M5.92188 7.03125C5.38254 7.03125 4.94531 7.46847 4.94531 8.00781V16.5628C3.88465 16.9389 3.125 17.951 3.125 19.1406C3.125 20.6508 4.34922 21.875 5.85938 21.875C7.36953 21.875 8.59375 20.6508 8.59375 19.1406C8.59375 17.9983 7.89328 17.0196 6.89844 16.6106V8.00781C6.89844 7.46847 6.46122 7.03125 5.92188 7.03125Z" fill="#FF0000"/>
</svg>
