<svg width="20" height="20" viewBox="0 0 20 20" fill="none" xmlns="http://www.w3.org/2000/svg">
<path d="M6.04 14.34C7.05 11.83 8.19 8.96 12.5 8C12.5 8 7.5 8 5.88 12.63C5.88 12.63 5 11.75 5 10.75C5 9.75 6 7.63 8.5 7.13C9.21 7 10 6.87 10.78 6.76C12.75 6.5 14.64 6.22 15 5.5C15 5.5 13.5 14 8 14C7.82 14 7.57 13.94 7.33 13.85L6.86 15L5.91 14.67L6.04 14.34ZM10 2C14.41 2 18 5.59 18 10C18 14.41 14.41 18 10 18C5.59 18 2 14.41 2 10C2 5.59 5.59 2 10 2ZM10 0C4.5 0 0 4.5 0 10C0 15.5 4.5 20 10 20C15.5 20 20 15.5 20 10C20 4.5 15.5 0 10 0Z" fill="black"/>
</svg>
